<?xml version="1.0" encoding="UTF-8" standalone="no"?><!DOCTYPE svg PUBLIC "-//W3C//DTD SVG 1.1//EN" "http://www.w3.org/Graphics/SVG/1.1/DTD/svg11.dtd"><svg width="100%" height="100%" viewBox="0 0 30 29" version="1.1" xmlns="http://www.w3.org/2000/svg" xmlns:xlink="http://www.w3.org/1999/xlink" xml:space="preserve" xmlns:serif="http://www.serif.com/" style="fill-rule:evenodd;clip-rule:evenodd;stroke-linejoin:round;stroke-miterlimit:2;"><rect id="Factory-Buyable" serif:id="Factory Buyable" x="0.198" y="0" width="28.8" height="28.8" style="fill:#171717;"/><clipPath id="_clip1"><rect x="0.198" y="0" width="28.8" height="28.8"/></clipPath><g clip-path="url(#_clip1)"><path d="M7.398,4.8l0,2.4l2.4,-0l0,2.4l2.4,-0l0,2.4l2.4,-0l0,-7.2l2.4,-0l0,2.4l2.4,-0l0,2.4l2.4,-0l0,2.4l2.4,-0l0,9.6l-19.2,-0l0,-16.8l2.4,-0Z" style="fill:#fafafa;"/><path d="M28.998,-0l0,28.8l-28.8,-0l0,-28.8l2.4,2.4l0,21.6l24,-0l0,-21.6l-24,0l-2.4,-2.4l28.8,-0Z" style="fill:#7cfc00;"/></g></svg>