<?xml version="1.0" encoding="UTF-8" standalone="no"?><!DOCTYPE svg PUBLIC "-//W3C//DTD SVG 1.1//EN" "http://www.w3.org/Graphics/SVG/1.1/DTD/svg11.dtd"><svg width="100%" height="100%" viewBox="0 0 87 29" version="1.1" xmlns="http://www.w3.org/2000/svg" xmlns:xlink="http://www.w3.org/1999/xlink" xml:space="preserve" xmlns:serif="http://www.serif.com/" style="fill-rule:evenodd;clip-rule:evenodd;stroke-linejoin:round;stroke-miterlimit:2;"><rect id="notneck" x="0" y="-0" width="86.4" height="28.8" style="fill:none;"/><path d="M7.2,13.68l-4.8,-0l0,1.44l4.8,-0l0,-1.44Z" style="fill:#dc143c;"/><path d="M16.8,13.68l-4.8,0l0,1.44l4.8,0l-0,-1.44Z" style="fill:#dc143c;"/><path d="M26.4,13.68l-4.8,0l-0,1.44l4.8,0l-0,-1.44Z" style="fill:#dc143c;"/><path d="M36,13.68l-4.8,0l-0,1.44l4.8,0l-0,-1.44Z" style="fill:#dc143c;"/><path d="M45.6,13.68l-4.8,0l-0,1.44l4.8,0l-0,-1.44Z" style="fill:#dc143c;"/><path d="M55.2,13.68l-4.8,0l-0,1.44l4.8,0l-0,-1.44Z" style="fill:#dc143c;"/><path d="M64.8,13.68l-4.8,0l-0,1.44l4.8,0l-0,-1.44Z" style="fill:#dc143c;"/><path d="M74.4,13.68l-4.8,0l-0,1.44l4.8,0l-0,-1.44Z" style="fill:#dc143c;"/><path d="M84,13.68l-4.8,0l-0,1.44l4.8,0l-0,-1.44Z" style="fill:#dc143c;"/></svg>