<?xml version="1.0" encoding="UTF-8" standalone="no"?><!DOCTYPE svg PUBLIC "-//W3C//DTD SVG 1.1//EN" "http://www.w3.org/Graphics/SVG/1.1/DTD/svg11.dtd"><svg width="100%" height="100%" viewBox="0 0 30 30" version="1.1" xmlns="http://www.w3.org/2000/svg" xmlns:xlink="http://www.w3.org/1999/xlink" xml:space="preserve" xmlns:serif="http://www.serif.com/" style="fill-rule:evenodd;clip-rule:evenodd;stroke-linejoin:round;stroke-miterlimit:2;"><rect id="Save-Button" serif:id="Save Button" x="0.066" y="0.127" width="28.8" height="28.8" style="fill:#171717;"/><clipPath id="_clip1"><rect x="0.066" y="0.127" width="28.8" height="28.8"/></clipPath><g clip-path="url(#_clip1)"><rect x="14.466" y="0.127" width="2.4" height="2.4" style="fill:#7cfc00;"/><path d="M19.266,4.927l0,2.4l2.4,0.113l0,2.287l2.4,-0l0,14.4l-19.2,-0l0,-19.2l14.4,-0Z" style="fill:#7cfc00;"/><path d="M28.866,0.127l0,14.4l-2.4,-0l0,-12l-9.6,-0l0,-2.4l12,-0Z" style="fill:#dc143c;"/><rect x="26.466" y="14.527" width="2.4" height="12" style="fill:#7cfc00;"/><path d="M2.466,2.527l0,19.2l-2.4,-0l0,-21.6l16.8,-0l0,2.4l-14.4,-0Z" style="fill:#7cfc00;"/><rect x="0.066" y="21.727" width="2.4" height="2.4" style="fill:#dc143c;"/><path d="M2.466,24.127l0,2.4l2.4,-0l0,2.4l-4.8,-0l0,-4.8l2.4,-0Z" style="fill:#7cfc00;"/><rect x="4.866" y="26.527" width="2.4" height="2.4" style="fill:#dc143c;"/><rect x="7.266" y="26.527" width="2.4" height="2.4" style="fill:#7cfc00;"/><rect x="9.666" y="26.527" width="19.2" height="2.4" style="fill:#dc143c;"/></g></svg>