<?xml version="1.0" encoding="UTF-8" standalone="no"?><!DOCTYPE svg PUBLIC "-//W3C//DTD SVG 1.1//EN" "http://www.w3.org/Graphics/SVG/1.1/DTD/svg11.dtd"><svg width="100%" height="100%" viewBox="0 0 30 30" version="1.1" xmlns="http://www.w3.org/2000/svg" xmlns:xlink="http://www.w3.org/1999/xlink" xml:space="preserve" xmlns:serif="http://www.serif.com/" style="fill-rule:evenodd;clip-rule:evenodd;stroke-linejoin:round;stroke-miterlimit:2;"><rect id="Wipe-Button" serif:id="Wipe Button" x="0.132" y="0.127" width="28.8" height="28.8" style="fill:#171717;"/><clipPath id="_clip1"><rect x="0.132" y="0.127" width="28.8" height="28.8"/></clipPath><g clip-path="url(#_clip1)"><rect x="16.932" y="0.127" width="7.2" height="2.4" style="fill:#dc143c;"/><rect x="24.132" y="0.127" width="2.4" height="2.4" style="fill:#7cfc00;"/><rect x="26.532" y="0.127" width="2.4" height="7.2" style="fill:#dc143c;"/><path d="M19.332,4.927l0,2.4l2.4,-0l0,2.4l2.4,-0l0,14.4l-19.2,-0l0,-19.2l14.4,-0Z" style="fill:#dc143c;"/><rect x="26.532" y="7.327" width="2.4" height="2.4" style="fill:#7cfc00;"/><path d="M9.732,9.727l0,2.4l2.4,-0l0,2.4l2.4,-0l0,-2.4l2.4,-0l0,-2.4l2.4,-0l0,2.4l-2.4,-0l0,2.4l-2.4,-0l0,2.4l2.4,-0l0,2.4l2.4,-0l0,2.4l-2.4,-0l0,-2.4l-2.4,-0l0,-2.4l-2.4,-0l0,2.4l-2.4,-0l0,2.4l-2.4,-0l0,-2.4l2.4,-0l0,-2.4l2.4,-0l0,-2.4l-2.4,-0l0,-2.4l-2.4,-0l0,-2.4l2.4,-0Z" style="fill:#fafafa;"/><rect x="26.532" y="9.727" width="2.4" height="4.8" style="fill:#dc143c;"/><rect x="26.532" y="14.527" width="2.4" height="12" style="fill:#7cfc00;"/><path d="M2.532,2.527l0,19.2l-2.4,-0l0,-21.6l16.8,-0l0,2.4l-14.4,-0Z" style="fill:#7cfc00;"/><rect x="0.132" y="21.727" width="2.4" height="7.2" style="fill:#dc143c;"/><rect x="2.532" y="26.527" width="2.4" height="2.4" style="fill:#7cfc00;"/><rect x="4.932" y="26.527" width="24" height="2.4" style="fill:#dc143c;"/></g></svg>